# Blender 4.1.1
# www.blender.org
mtllib scroller.mtl
o Cube.001
v 0.158919 -2.642549 -1.808414
v 0.088030 -2.642549 -1.854187
v 0.166046 -3.042549 -1.796824
v 0.211195 -3.042549 -1.726901
v 0.168342 -2.642549 -1.481152
v 0.214115 -2.642549 -1.552042
v 0.156752 -3.042549 -1.474026
v 0.086829 -3.042549 -1.428877
v -0.168342 -2.642549 -1.798991
v -0.214115 -2.642549 -1.728101
v -0.156752 -3.042549 -1.806118
v -0.086829 -3.042549 -1.851267
v -0.158919 -2.642549 -1.471730
v -0.088030 -2.642549 -1.425957
v -0.166046 -3.042549 -1.483320
v -0.211195 -3.042549 -1.553243
v 0.170053 -2.661230 -1.813205
v 0.096706 -2.661230 -1.862650
v -0.096706 -2.661230 -1.417494
v -0.170053 -2.661230 -1.466939
v 0.173133 -2.661230 -1.470019
v 0.222578 -2.661230 -1.543366
v -0.173133 -2.661230 -1.810125
v -0.222578 -2.661230 -1.736778
v 0.222927 -3.027286 -1.735970
v -0.222927 -3.027286 -1.544173
v 0.095899 -3.027286 -1.417145
v -0.095899 -3.027286 -1.862999
v 0.173748 -3.027286 -1.809496
v -0.173748 -3.027286 -1.470648
v 0.169424 -3.027286 -1.466323
v -0.169424 -3.027286 -1.813820
v 0.075565 -2.242549 -1.858897
v -0.007881 -2.242549 -1.871442
v 0.086829 -2.642549 -1.851267
v 0.156752 -2.642549 -1.806118
v 0.218825 -2.242549 -1.564507
v 0.231370 -2.242549 -1.647953
v 0.211195 -2.642549 -1.553243
v 0.166046 -2.642549 -1.483320
v -0.218825 -2.242549 -1.715636
v -0.231370 -2.242549 -1.632191
v -0.211195 -2.642549 -1.726901
v -0.166046 -2.642549 -1.796824
v -0.075565 -2.242549 -1.421247
v 0.007881 -2.242549 -1.408701
v -0.086829 -2.642549 -1.428877
v -0.156752 -2.642549 -1.474026
v 0.083740 -2.261230 -1.867845
v -0.003456 -2.261230 -1.882726
v 0.003456 -2.261230 -1.397418
v -0.083740 -2.261230 -1.412298
v 0.227773 -2.261230 -1.556332
v 0.242654 -2.261230 -1.643528
v -0.227773 -2.261230 -1.723812
v -0.242654 -2.261230 -1.636616
v 0.163713 -2.627286 -1.819212
v -0.163713 -2.627286 -1.460932
v 0.179140 -2.627286 -1.476359
v -0.179140 -2.627286 -1.803785
v 0.088634 -2.627286 -1.865985
v -0.088634 -2.627286 -1.414158
v 0.225914 -2.627286 -1.551437
v -0.225914 -2.627286 -1.728706
v -0.021180 -1.842549 -1.870605
v -0.102395 -1.842549 -1.847700
v -0.007773 -2.242549 -1.868287
v 0.074534 -2.242549 -1.855912
v 0.230534 -1.842549 -1.661251
v 0.207629 -1.842549 -1.742467
v 0.228215 -2.242549 -1.647845
v 0.215841 -2.242549 -1.565538
v -0.230534 -1.842549 -1.618892
v -0.207629 -1.842549 -1.537677
v -0.228215 -2.242549 -1.632298
v -0.215841 -2.242549 -1.714606
v 0.021180 -1.842549 -1.409538
v 0.102395 -1.842549 -1.432443
v 0.007773 -2.242549 -1.411857
v -0.074534 -2.242549 -1.424231
v -0.017411 -1.861230 -1.882125
v -0.103005 -1.861230 -1.859806
v 0.103005 -1.861230 -1.420338
v 0.017411 -1.861230 -1.398018
v 0.242053 -1.861230 -1.657483
v 0.219734 -1.861230 -1.743077
v -0.242053 -1.861230 -1.622661
v -0.219734 -1.861230 -1.537066
v 0.075490 -2.227286 -1.870711
v -0.075490 -2.227286 -1.409433
v 0.230639 -2.227286 -1.564582
v -0.230639 -2.227286 -1.715562
v -0.012185 -2.227286 -1.882445
v 0.012185 -2.227286 -1.397699
v 0.242373 -2.227286 -1.652257
v -0.242373 -2.227286 -1.627887
v -0.114171 -1.442549 -1.841465
v -0.178765 -1.442549 -1.787168
v -0.100998 -1.842549 -1.844869
v -0.020891 -1.842549 -1.867462
v 0.201393 -1.442549 -1.754243
v 0.147097 -1.442549 -1.818837
v 0.204797 -1.842549 -1.741070
v 0.227390 -1.842549 -1.660963
v -0.201393 -1.442549 -1.525901
v -0.147097 -1.442549 -1.461307
v -0.204797 -1.842549 -1.539073
v -0.227390 -1.842549 -1.619181
v 0.114171 -1.442549 -1.438678
v 0.178765 -1.442549 -1.492975
v 0.100998 -1.842549 -1.435275
v 0.020891 -1.842549 -1.412682
v -0.115477 -1.461230 -1.853515
v -0.184303 -1.461230 -1.797950
v 0.184303 -1.461230 -1.482194
v 0.115477 -1.461230 -1.426628
v 0.213443 -1.461230 -1.755549
v 0.157878 -1.461230 -1.824375
v -0.213443 -1.461230 -1.524595
v -0.157878 -1.461230 -1.455769
v -0.026110 -1.827286 -1.881342
v 0.026110 -1.827286 -1.398802
v 0.241270 -1.827286 -1.666181
v -0.241270 -1.827286 -1.613962
v -0.110845 -1.827286 -1.855957
v 0.110845 -1.827286 -1.424187
v 0.215885 -1.827286 -1.750917
v -0.215885 -1.827286 -1.529227
v -0.186932 -1.042549 -1.776639
v -0.223459 -1.042549 -1.700572
v -0.176327 -1.442549 -1.785162
v -0.112614 -1.442549 -1.838719
v 0.136568 -1.042549 -1.827004
v 0.060500 -1.042549 -1.863531
v 0.145091 -1.442549 -1.816399
v 0.198647 -1.442549 -1.752686
v -0.136568 -1.042549 -1.453140
v -0.060500 -1.042549 -1.416612
v -0.145091 -1.442549 -1.463745
v -0.198647 -1.442549 -1.527458
v 0.186932 -1.042549 -1.503504
v 0.223459 -1.042549 -1.579572
v 0.176327 -1.442549 -1.494981
v 0.112614 -1.442549 -1.441425
v -0.193081 -1.061230 -1.787084
v -0.232943 -1.061230 -1.708119
v 0.232943 -1.061230 -1.572025
v 0.193081 -1.061230 -1.493059
v 0.147012 -1.061230 -1.833153
v 0.068047 -1.061230 -1.873015
v -0.147012 -1.061230 -1.446990
v -0.068047 -1.061230 -1.407128
v -0.123083 -1.427286 -1.849222
v 0.123083 -1.427286 -1.430922
v 0.209150 -1.427286 -1.763154
v -0.209150 -1.427286 -1.516989
v -0.189864 -1.427286 -1.791216
v 0.189864 -1.427286 -1.488928
v 0.151144 -1.427286 -1.829936
v -0.151144 -1.427286 -1.450207
vn -0.0000 -1.0000 -0.0000
vn -0.9247 0.3353 0.1800
vn 0.1800 0.3353 0.9247
vn -0.0000 1.0000 -0.0000
vn 0.9247 0.3353 -0.1800
vn 0.6237 -0.6611 -0.4172
vn -0.4907 0.4791 0.7278
vn 0.4171 -0.6611 0.6237
vn -0.4171 -0.6611 -0.6237
vn -0.1800 0.3353 -0.9247
vn 0.1936 -0.1010 -0.9759
vn -0.7100 0.5346 -0.4584
vn 0.7100 0.5346 0.4584
vn -0.8312 0.0028 0.5560
vn 0.4584 0.5346 -0.7100
vn 0.9759 -0.1010 0.1936
vn -0.1936 -0.1010 0.9759
vn -0.9759 -0.1010 -0.1936
vn -0.7202 -0.6762 -0.1551
vn -0.1551 -0.6762 0.7202
vn 0.7202 -0.6762 0.1551
vn -0.6036 -0.6956 0.3897
vn 0.1551 -0.6762 -0.7202
vn -0.8292 -0.0028 -0.5590
vn 0.8292 -0.0028 0.5590
vn 0.5590 -0.0028 -0.8292
vn -0.7687 0.3353 0.5446
vn 0.5446 0.3353 0.7687
vn 0.7687 0.3353 -0.5446
vn 0.3967 -0.6611 -0.6368
vn -0.1477 0.4791 0.8653
vn 0.6368 -0.6611 0.3967
vn -0.6368 -0.6611 -0.3967
vn -0.5446 0.3353 -0.7687
vn -0.2251 -0.1010 -0.9691
vn -0.8357 0.5346 -0.1256
vn 0.8357 0.5346 0.1256
vn -0.5288 0.0028 0.8488
vn 0.1256 0.5346 -0.8357
vn 0.9691 -0.1010 -0.2251
vn 0.2251 -0.1010 0.9691
vn -0.9691 -0.1010 0.2251
vn -0.7202 -0.6762 0.1551
vn 0.1551 -0.6762 0.7202
vn 0.7202 -0.6762 -0.1551
vn -0.3897 -0.6956 0.6036
vn -0.1551 -0.6762 -0.7202
vn -0.9857 -0.0028 -0.1682
vn 0.9857 -0.0028 0.1682
vn 0.1682 -0.0028 -0.9857
vn -0.4765 0.3353 0.8127
vn 0.8127 0.3353 0.4765
vn 0.4765 0.3353 -0.8127
vn 0.0995 -0.6611 -0.7437
vn 0.2215 0.4791 0.8494
vn 0.7437 -0.6611 0.0995
vn -0.7437 -0.6611 -0.0995
vn -0.8127 0.3353 -0.4765
vn -0.6040 -0.1010 -0.7906
vn -0.8134 0.5346 0.2294
vn 0.8134 0.5346 -0.2294
vn -0.1327 0.0028 0.9912
vn -0.2294 0.5346 -0.8134
vn 0.7906 -0.1010 -0.6040
vn 0.6040 -0.1010 0.7906
vn -0.7906 -0.1010 0.6040
vn -0.5926 -0.6762 0.4377
vn 0.4377 -0.6762 0.5926
vn 0.5926 -0.6762 -0.4377
vn -0.1068 -0.6956 0.7105
vn -0.4377 -0.6762 -0.5926
vn -0.9676 -0.0028 0.2523
vn 0.9676 -0.0028 -0.2523
vn -0.2523 -0.0028 -0.9676
vn -0.0999 0.3353 0.9368
vn 0.9368 0.3353 0.0999
vn 0.0999 0.3353 -0.9368
vn -0.2153 -0.6611 -0.7188
vn 0.5514 0.4791 0.6830
vn 0.7188 -0.6611 -0.2153
vn -0.7188 -0.6611 0.2153
vn -0.9368 0.3353 -0.0999
vn -0.8758 -0.1010 -0.4720
vn -0.6469 0.5346 0.5438
vn 0.6469 0.5346 -0.5438
vn 0.2870 0.0028 0.9579
vn -0.5438 0.5346 -0.6469
vn 0.4720 -0.1010 -0.8758
vn 0.8758 -0.1010 0.4720
vn -0.4720 -0.1010 0.8758
vn -0.3600 -0.6762 0.6428
vn 0.6428 -0.6762 0.3600
vn 0.3600 -0.6762 -0.6428
vn 0.1950 -0.6956 0.6915
vn -0.6428 -0.6762 -0.3600
vn -0.7781 -0.0028 0.6282
vn 0.7781 -0.0028 -0.6282
vn -0.6282 -0.0028 -0.7781
vn 0.2945 0.3353 0.8949
vn 0.8949 0.3353 -0.2945
vn -0.2945 0.3353 -0.8949
vn -0.4920 -0.6611 -0.5665
vn 0.7836 0.4791 0.3956
vn 0.5665 -0.6611 -0.4920
vn -0.5665 -0.6611 0.4920
vn -0.8949 0.3353 0.2945
vn -0.9924 -0.1010 -0.0698
vn -0.3658 0.5346 0.7618
vn 0.3658 0.5346 -0.7618
vn 0.6558 0.0028 0.7550
vn -0.7619 0.5346 -0.3658
vn 0.0698 -0.1010 -0.9924
vn 0.9924 -0.1010 0.0698
vn -0.0698 -0.1010 0.9924
vn -0.0636 -0.6762 0.7340
vn 0.7340 -0.6762 0.0636
vn 0.0636 -0.6762 -0.7340
vn 0.4623 -0.6956 0.5500
vn -0.7340 -0.6762 -0.0636
vn -0.4506 -0.0028 0.8927
vn 0.4506 -0.0028 -0.8927
vn -0.8927 -0.0028 -0.4506
vn -0.8247 0.5370 0.1775
vn 0.1775 0.5370 0.8247
vn 0.8247 0.5370 -0.1775
vn 0.6036 -0.6956 -0.3897
vn -0.4584 0.5346 0.7100
vn 0.3897 -0.6956 0.6036
vn -0.3897 -0.6956 -0.6036
vn -0.1775 0.5370 -0.8247
vn -0.1901 0.1010 -0.9766
vn -0.7278 0.4791 -0.4907
vn 0.7278 0.4791 0.4907
vn -0.5590 -0.0028 0.8292
vn 0.4907 0.4791 -0.7278
vn 0.9766 0.1010 -0.1901
vn 0.1901 0.1010 0.9766
vn -0.9766 0.1010 0.1901
vn -0.8268 -0.5381 -0.1641
vn -0.1641 -0.5381 0.8268
vn 0.8268 -0.5381 0.1641
vn -0.6237 -0.6611 0.4172
vn 0.1641 -0.5381 -0.8268
vn -0.5560 0.0028 -0.8312
vn 0.5560 0.0028 0.8312
vn 0.8312 0.0028 -0.5560
vn -0.6786 0.5370 0.5012
vn 0.5012 0.5370 0.6786
vn 0.6786 0.5370 -0.5012
vn 0.3897 -0.6956 -0.6036
vn -0.1256 0.5346 0.8357
vn 0.6036 -0.6956 0.3897
vn -0.6036 -0.6956 -0.3897
vn -0.5012 0.5370 -0.6786
vn -0.5751 0.1010 -0.8118
vn -0.8653 0.4791 -0.1477
vn 0.8653 0.4791 0.1477
vn -0.1682 -0.0028 0.9857
vn 0.1477 0.4791 -0.8653
vn 0.8118 0.1010 -0.5751
vn 0.5751 0.1010 0.8118
vn -0.8118 0.1010 0.5751
vn -0.8210 -0.5381 0.1907
vn 0.1907 -0.5381 0.8210
vn 0.8210 -0.5381 -0.1907
vn -0.3967 -0.6611 0.6368
vn -0.1907 -0.5381 -0.8210
vn -0.8488 0.0028 -0.5288
vn 0.8488 0.0028 0.5288
vn 0.5288 0.0028 -0.8488
vn -0.4122 0.5370 0.7360
vn 0.7360 0.5370 0.4122
vn 0.4122 0.5370 -0.7360
vn 0.1068 -0.6956 -0.7105
vn 0.2294 0.5346 0.8134
vn 0.7105 -0.6956 0.1068
vn -0.7105 -0.6956 -0.1068
vn -0.7360 0.5370 -0.4122
vn -0.8582 0.1010 -0.5032
vn -0.8494 0.4791 0.2215
vn 0.8494 0.4791 -0.2215
vn 0.2523 -0.0028 0.9676
vn -0.2215 0.4791 -0.8494
vn 0.5032 0.1010 -0.8582
vn 0.8582 0.1010 0.5032
vn -0.5032 0.1010 0.8582
vn -0.6698 -0.5381 0.5117
vn 0.5117 -0.5381 0.6698
vn 0.6698 -0.5381 -0.5117
vn -0.0995 -0.6611 0.7437
vn -0.5117 -0.5381 -0.6698
vn -0.9912 0.0028 -0.1327
vn 0.9912 0.0028 0.1327
vn 0.1327 0.0028 -0.9912
vn -0.0728 0.5370 0.8404
vn 0.8404 0.5370 0.0728
vn 0.0728 0.5370 -0.8404
vn -0.1950 -0.6956 -0.6915
vn 0.5438 0.5346 0.6469
vn 0.6915 -0.6956 -0.1950
vn -0.6915 -0.6956 0.1950
vn -0.8404 0.5370 -0.0728
vn -0.9893 0.1010 -0.1055
vn -0.6830 0.4791 0.5514
vn 0.6830 0.4791 -0.5514
vn 0.6282 -0.0028 0.7781
vn -0.5514 0.4791 -0.6830
vn 0.1055 0.1010 -0.9893
vn 0.9893 0.1010 0.1055
vn -0.1055 0.1010 0.9893
vn -0.3999 -0.5381 0.7420
vn 0.7420 -0.5381 0.3999
vn 0.3999 -0.5381 -0.7420
vn 0.2153 -0.6611 0.7188
vn -0.7420 -0.5381 -0.3999
vn -0.9579 0.0028 0.2870
vn 0.9579 0.0028 -0.2870
vn -0.2870 0.0028 -0.9579
vn 0.2795 0.5370 0.7959
vn 0.7959 0.5370 -0.2795
vn -0.2795 0.5370 -0.7959
vn -0.4623 -0.6956 -0.5500
vn 0.7618 0.5346 0.3658
vn 0.5500 -0.6956 -0.4623
vn -0.5500 -0.6956 0.4623
vn -0.7959 0.5370 0.2795
vn -0.9450 0.1010 0.3110
vn -0.3956 0.4791 0.7836
vn 0.3956 0.4791 -0.7836
vn 0.8927 -0.0028 0.4506
vn -0.7836 0.4791 -0.3956
vn -0.3110 0.1010 -0.9450
vn 0.9450 0.1010 -0.3110
vn 0.3110 0.1010 0.9450
vn -0.0591 -0.5381 0.8408
vn 0.8408 -0.5381 0.0591
vn 0.0591 -0.5381 -0.8408
vn 0.4920 -0.6611 0.5665
vn -0.8408 -0.5381 -0.0591
vn -0.7550 0.0028 0.6558
vn 0.7550 0.0028 -0.6558
vn -0.6558 0.0028 -0.7550
vt 0.260213 0.561014
vt 0.219537 0.780463
vt 0.000088 0.739787
vt 0.508189 0.040764
vt 0.520338 0.219537
vt 0.508189 0.219537
vt 0.508189 0.821139
vt 0.520338 0.999912
vt 0.508189 0.999912
vt 0.780463 0.561014
vt 0.739787 0.780463
vt 0.520338 0.739787
vt 0.508189 0.561014
vt 0.508189 0.739787
vt 0.270139 0.561014
vt 0.260213 0.479662
vt 0.270139 0.479662
vt 0.508189 0.000088
vt 0.520338 0.040764
vt 0.270139 0.821138
vt 0.260213 0.739787
vt 0.270139 0.739787
vt 0.270139 0.300889
vt 0.260213 0.219537
vt 0.270139 0.219537
vt 0.508189 0.300889
vt 0.520338 0.479662
vt 0.508189 0.479662
vt 0.520338 0.300889
vt 0.520338 0.821138
vt 0.270139 0.000088
vt 0.270139 0.040764
vt 0.520338 0.561014
vt 0.270139 0.999912
vt 0.260213 0.040764
vt 0.260213 0.821138
vt 0.260213 0.999912
vt 0.260213 0.000088
vt 0.260213 0.300889
vt 0.000088 0.561014
vt 0.040764 0.520338
vt 0.219537 0.520338
vt 0.040764 0.780463
vt 0.561014 0.520338
vt 0.739787 0.520338
vt 0.780463 0.739787
vt 0.561014 0.780463
vt 0.520338 0.000088
s 0
usemtl Material
f 4/1/1 8/2/1 16/3/1
f 20/4/2 10/5/2 24/6/2
f 21/7/3 14/8/3 19/9/3
f 10/10/4 14/11/4 6/12/4
f 17/13/5 6/12/5 22/14/5
f 25/15/6 3/16/6 29/17/6
f 19/18/7 13/19/7 20/4/7
f 27/20/8 7/21/8 31/22/8
f 28/23/9 11/24/9 32/25/9
f 23/26/10 2/27/10 18/28/10
f 28/23/11 18/28/11 29/17/11
f 9/29/12 24/6/12 10/5/12
f 5/30/13 22/14/13 6/12/13
f 30/31/14 20/4/14 26/32/14
f 1/33/15 18/28/15 2/27/15
f 25/15/16 22/14/16 31/22/16
f 27/20/17 19/9/17 30/34/17
f 26/32/18 24/6/18 32/25/18
f 16/35/19 32/25/19 11/24/19
f 8/36/20 30/34/20 15/37/20
f 4/1/21 31/22/21 7/21/21
f 15/38/22 26/32/22 16/35/22
f 12/39/23 29/17/23 3/16/23
f 23/26/24 32/25/24 24/6/24
f 21/7/25 31/22/25 22/14/25
f 17/13/26 29/17/26 18/28/26
f 36/1/1 40/2/1 48/3/1
f 52/4/27 42/5/27 56/6/27
f 53/7/28 46/8/28 51/9/28
f 42/10/4 46/11/4 38/12/4
f 49/13/29 38/12/29 54/14/29
f 57/15/30 35/16/30 61/17/30
f 51/18/31 45/19/31 52/4/31
f 59/20/32 39/21/32 63/22/32
f 60/23/33 43/24/33 64/25/33
f 55/26/34 34/27/34 50/28/34
f 60/23/35 50/28/35 61/17/35
f 41/29/36 56/6/36 42/5/36
f 37/30/37 54/14/37 38/12/37
f 62/31/38 52/4/38 58/32/38
f 33/33/39 50/28/39 34/27/39
f 57/15/40 54/14/40 63/22/40
f 59/20/41 51/9/41 62/34/41
f 58/32/42 56/6/42 64/25/42
f 48/35/43 64/25/43 43/24/43
f 40/36/44 62/34/44 47/37/44
f 36/1/45 63/22/45 39/21/45
f 47/38/46 58/32/46 48/35/46
f 44/39/47 61/17/47 35/16/47
f 55/26/48 64/25/48 56/6/48
f 53/7/49 63/22/49 54/14/49
f 49/13/50 61/17/50 50/28/50
f 68/1/1 72/2/1 80/3/1
f 84/4/51 74/5/51 88/6/51
f 85/7/52 78/8/52 83/9/52
f 74/10/4 78/11/4 70/12/4
f 81/13/53 70/12/53 86/14/53
f 89/15/54 67/16/54 93/17/54
f 83/18/55 77/19/55 84/4/55
f 91/20/56 71/21/56 95/22/56
f 92/23/57 75/24/57 96/25/57
f 87/26/58 66/27/58 82/28/58
f 92/23/59 82/28/59 93/17/59
f 73/29/60 88/6/60 74/5/60
f 69/30/61 86/14/61 70/12/61
f 94/31/62 84/4/62 90/32/62
f 65/33/63 82/28/63 66/27/63
f 89/15/64 86/14/64 95/22/64
f 91/20/65 83/9/65 94/34/65
f 90/32/66 88/6/66 96/25/66
f 80/35/67 96/25/67 75/24/67
f 72/36/68 94/34/68 79/37/68
f 68/1/69 95/22/69 71/21/69
f 79/38/70 90/32/70 80/35/70
f 76/39/71 93/17/71 67/16/71
f 87/26/72 96/25/72 88/6/72
f 85/7/73 95/22/73 86/14/73
f 81/13/74 93/17/74 82/28/74
f 100/1/1 104/2/1 112/3/1
f 116/4/75 106/5/75 120/6/75
f 117/7/76 110/8/76 115/9/76
f 106/10/4 110/11/4 102/12/4
f 113/13/77 102/12/77 118/14/77
f 121/15/78 99/16/78 125/17/78
f 115/18/79 109/19/79 116/4/79
f 123/20/80 103/21/80 127/22/80
f 124/23/81 107/24/81 128/25/81
f 119/26/82 98/27/82 114/28/82
f 124/23/83 114/28/83 125/17/83
f 105/29/84 120/6/84 106/5/84
f 101/30/85 118/14/85 102/12/85
f 126/31/86 116/4/86 122/32/86
f 97/33/87 114/28/87 98/27/87
f 121/15/88 118/14/88 127/22/88
f 123/20/89 115/9/89 126/34/89
f 122/32/90 120/6/90 128/25/90
f 112/35/91 128/25/91 107/24/91
f 104/36/92 126/34/92 111/37/92
f 100/1/93 127/22/93 103/21/93
f 111/38/94 122/32/94 112/35/94
f 108/39/95 125/17/95 99/16/95
f 119/26/96 128/25/96 120/6/96
f 117/7/97 127/22/97 118/14/97
f 113/13/98 125/17/98 114/28/98
f 132/1/1 136/2/1 144/3/1
f 148/4/99 138/5/99 152/6/99
f 149/7/100 142/8/100 147/9/100
f 138/10/4 142/11/4 134/12/4
f 145/13/101 134/12/101 150/14/101
f 153/15/102 131/16/102 157/17/102
f 147/18/103 141/19/103 148/4/103
f 155/20/104 135/21/104 159/22/104
f 156/23/105 139/24/105 160/25/105
f 151/26/106 130/27/106 146/28/106
f 156/23/107 146/28/107 157/17/107
f 137/29/108 152/6/108 138/5/108
f 133/30/109 150/14/109 134/12/109
f 158/31/110 148/4/110 154/32/110
f 129/33/111 146/28/111 130/27/111
f 153/15/112 150/14/112 159/22/112
f 155/20/113 147/9/113 158/34/113
f 154/32/114 152/6/114 160/25/114
f 144/35/115 160/25/115 139/24/115
f 136/36/116 158/34/116 143/37/116
f 132/1/117 159/22/117 135/21/117
f 143/38/118 154/32/118 144/35/118
f 140/39/119 157/17/119 131/16/119
f 151/26/120 160/25/120 152/6/120
f 149/7/121 159/22/121 150/14/121
f 145/13/122 157/17/122 146/28/122
f 16/3/1 11/40/1 12/41/1
f 12/41/1 3/42/1 4/1/1
f 4/1/1 7/21/1 8/2/1
f 8/2/1 15/43/1 16/3/1
f 16/3/1 12/41/1 4/1/1
f 20/4/123 13/19/123 10/5/123
f 21/7/124 5/30/124 14/8/124
f 6/12/4 1/33/4 2/44/4
f 2/44/4 9/45/4 10/10/4
f 10/10/4 13/46/4 14/11/4
f 14/11/4 5/47/4 6/12/4
f 6/12/4 2/44/4 10/10/4
f 17/13/125 1/33/125 6/12/125
f 25/15/126 4/1/126 3/16/126
f 19/18/127 14/48/127 13/19/127
f 27/20/128 8/36/128 7/21/128
f 28/23/129 12/39/129 11/24/129
f 23/26/130 9/29/130 2/27/130
f 28/23/131 23/26/131 18/28/131
f 9/29/132 23/26/132 24/6/132
f 5/30/133 21/7/133 22/14/133
f 30/31/134 19/18/134 20/4/134
f 1/33/135 17/13/135 18/28/135
f 25/15/136 17/13/136 22/14/136
f 27/20/137 21/7/137 19/9/137
f 26/32/138 20/4/138 24/6/138
f 16/35/139 26/32/139 32/25/139
f 8/36/140 27/20/140 30/34/140
f 4/1/141 25/15/141 31/22/141
f 15/38/142 30/31/142 26/32/142
f 12/39/143 28/23/143 29/17/143
f 23/26/144 28/23/144 32/25/144
f 21/7/145 27/20/145 31/22/145
f 17/13/146 25/15/146 29/17/146
f 48/3/1 43/40/1 44/41/1
f 44/41/1 35/42/1 36/1/1
f 36/1/1 39/21/1 40/2/1
f 40/2/1 47/43/1 48/3/1
f 48/3/1 44/41/1 36/1/1
f 52/4/147 45/19/147 42/5/147
f 53/7/148 37/30/148 46/8/148
f 38/12/4 33/33/4 34/44/4
f 34/44/4 41/45/4 42/10/4
f 42/10/4 45/46/4 46/11/4
f 46/11/4 37/47/4 38/12/4
f 38/12/4 34/44/4 42/10/4
f 49/13/149 33/33/149 38/12/149
f 57/15/150 36/1/150 35/16/150
f 51/18/151 46/48/151 45/19/151
f 59/20/152 40/36/152 39/21/152
f 60/23/153 44/39/153 43/24/153
f 55/26/154 41/29/154 34/27/154
f 60/23/155 55/26/155 50/28/155
f 41/29/156 55/26/156 56/6/156
f 37/30/157 53/7/157 54/14/157
f 62/31/158 51/18/158 52/4/158
f 33/33/159 49/13/159 50/28/159
f 57/15/160 49/13/160 54/14/160
f 59/20/161 53/7/161 51/9/161
f 58/32/162 52/4/162 56/6/162
f 48/35/163 58/32/163 64/25/163
f 40/36/164 59/20/164 62/34/164
f 36/1/165 57/15/165 63/22/165
f 47/38/166 62/31/166 58/32/166
f 44/39/167 60/23/167 61/17/167
f 55/26/168 60/23/168 64/25/168
f 53/7/169 59/20/169 63/22/169
f 49/13/170 57/15/170 61/17/170
f 80/3/1 75/40/1 76/41/1
f 76/41/1 67/42/1 68/1/1
f 68/1/1 71/21/1 72/2/1
f 72/2/1 79/43/1 80/3/1
f 80/3/1 76/41/1 68/1/1
f 84/4/171 77/19/171 74/5/171
f 85/7/172 69/30/172 78/8/172
f 70/12/4 65/33/4 66/44/4
f 66/44/4 73/45/4 74/10/4
f 74/10/4 77/46/4 78/11/4
f 78/11/4 69/47/4 70/12/4
f 70/12/4 66/44/4 74/10/4
f 81/13/173 65/33/173 70/12/173
f 89/15/174 68/1/174 67/16/174
f 83/18/175 78/48/175 77/19/175
f 91/20/176 72/36/176 71/21/176
f 92/23/177 76/39/177 75/24/177
f 87/26/178 73/29/178 66/27/178
f 92/23/179 87/26/179 82/28/179
f 73/29/180 87/26/180 88/6/180
f 69/30/181 85/7/181 86/14/181
f 94/31/182 83/18/182 84/4/182
f 65/33/183 81/13/183 82/28/183
f 89/15/184 81/13/184 86/14/184
f 91/20/185 85/7/185 83/9/185
f 90/32/186 84/4/186 88/6/186
f 80/35/187 90/32/187 96/25/187
f 72/36/188 91/20/188 94/34/188
f 68/1/189 89/15/189 95/22/189
f 79/38/190 94/31/190 90/32/190
f 76/39/191 92/23/191 93/17/191
f 87/26/192 92/23/192 96/25/192
f 85/7/193 91/20/193 95/22/193
f 81/13/194 89/15/194 93/17/194
f 112/3/1 107/40/1 108/41/1
f 108/41/1 99/42/1 100/1/1
f 100/1/1 103/21/1 104/2/1
f 104/2/1 111/43/1 112/3/1
f 112/3/1 108/41/1 100/1/1
f 116/4/195 109/19/195 106/5/195
f 117/7/196 101/30/196 110/8/196
f 102/12/4 97/33/4 98/44/4
f 98/44/4 105/45/4 106/10/4
f 106/10/4 109/46/4 110/11/4
f 110/11/4 101/47/4 102/12/4
f 102/12/4 98/44/4 106/10/4
f 113/13/197 97/33/197 102/12/197
f 121/15/198 100/1/198 99/16/198
f 115/18/199 110/48/199 109/19/199
f 123/20/200 104/36/200 103/21/200
f 124/23/201 108/39/201 107/24/201
f 119/26/202 105/29/202 98/27/202
f 124/23/203 119/26/203 114/28/203
f 105/29/204 119/26/204 120/6/204
f 101/30/205 117/7/205 118/14/205
f 126/31/206 115/18/206 116/4/206
f 97/33/207 113/13/207 114/28/207
f 121/15/208 113/13/208 118/14/208
f 123/20/209 117/7/209 115/9/209
f 122/32/210 116/4/210 120/6/210
f 112/35/211 122/32/211 128/25/211
f 104/36/212 123/20/212 126/34/212
f 100/1/213 121/15/213 127/22/213
f 111/38/214 126/31/214 122/32/214
f 108/39/215 124/23/215 125/17/215
f 119/26/216 124/23/216 128/25/216
f 117/7/217 123/20/217 127/22/217
f 113/13/218 121/15/218 125/17/218
f 144/3/1 139/40/1 140/41/1
f 140/41/1 131/42/1 132/1/1
f 132/1/1 135/21/1 136/2/1
f 136/2/1 143/43/1 144/3/1
f 144/3/1 140/41/1 132/1/1
f 148/4/219 141/19/219 138/5/219
f 149/7/220 133/30/220 142/8/220
f 134/12/4 129/33/4 130/44/4
f 130/44/4 137/45/4 138/10/4
f 138/10/4 141/46/4 142/11/4
f 142/11/4 133/47/4 134/12/4
f 134/12/4 130/44/4 138/10/4
f 145/13/221 129/33/221 134/12/221
f 153/15/222 132/1/222 131/16/222
f 147/18/223 142/48/223 141/19/223
f 155/20/224 136/36/224 135/21/224
f 156/23/225 140/39/225 139/24/225
f 151/26/226 137/29/226 130/27/226
f 156/23/227 151/26/227 146/28/227
f 137/29/228 151/26/228 152/6/228
f 133/30/229 149/7/229 150/14/229
f 158/31/230 147/18/230 148/4/230
f 129/33/231 145/13/231 146/28/231
f 153/15/232 145/13/232 150/14/232
f 155/20/233 149/7/233 147/9/233
f 154/32/234 148/4/234 152/6/234
f 144/35/235 154/32/235 160/25/235
f 136/36/236 155/20/236 158/34/236
f 132/1/237 153/15/237 159/22/237
f 143/38/238 158/31/238 154/32/238
f 140/39/239 156/23/239 157/17/239
f 151/26/240 156/23/240 160/25/240
f 149/7/241 155/20/241 159/22/241
f 145/13/242 153/15/242 157/17/242
