# Blender 4.1.1
# www.blender.org
mtllib world.mtl
o World
v -50.000000 1.874588 50.000000
v 50.000000 1.874588 50.000000
v -50.000000 1.874588 -50.000000
v 50.000000 1.874588 -50.000000
v -50.000000 0.000000 50.000000
v 50.000000 0.000000 50.000000
v -50.000000 0.000000 -50.000000
v 50.000000 0.000000 -50.000000
v -3.168591 -0.800273 -1.972410
v -3.168591 2.799885 -1.972410
v -3.620601 -0.800273 -3.920662
v -3.620601 2.799885 -3.920662
v -1.672349 -0.800273 -4.372672
v -1.672349 2.799885 -4.372672
v -1.461067 -0.800273 -3.462006
v -2.257926 -0.800273 -2.183691
v -2.257926 2.799885 -2.183691
v -1.461067 2.799885 -3.462006
v -4.694174 -0.800273 -3.671585
v -4.351433 -0.800273 -2.194299
v -4.351433 2.799885 -2.194299
v -4.694174 2.799885 -3.671585
vn -0.0000 -1.0000 -0.0000
vn -0.0000 1.0000 -0.0000
vn -0.2260 -0.0000 -0.9741
vn 0.2260 -0.0000 0.9741
vn 0.9741 -0.0000 -0.2260
vn 0.8486 -0.0000 0.5290
vn -0.9741 -0.0000 0.2260
vn -0.1844 -0.0000 0.9829
vt 0.000000 1.000000
vt 1.000000 0.000000
vt 0.000000 0.000000
vt 0.375000 0.250000
vt 0.625000 0.250000
vt 0.375000 0.500000
vt 0.625000 0.883143
vt 0.375000 1.000000
vt 0.375000 0.883143
vt 0.875000 0.500000
vt 0.758143 0.750000
vt 0.625000 0.616857
vt 0.625000 0.500000
vt 0.375000 0.616857
vt 0.241857 0.750000
vt 0.125000 0.750000
vt 0.625000 0.000000
vt 0.375000 0.000000
vt 0.625000 1.000000
vt 0.875000 0.750000
vt 0.125000 0.500000
vt 1.000000 1.000000
s 0
usemtl ReflectivePlane
f 3/1/1 2/2/1 1/3/1
f 6/2/2 7/1/2 5/3/2
f 11/4/3 22/5/3 12/5/3
f 12/5/3 13/6/3 11/4/3
f 17/7/4 9/8/4 16/9/4
f 12/10/2 17/11/2 18/12/2
f 14/13/5 15/14/5 13/6/5
f 16/9/6 18/12/6 17/7/6
f 13/6/1 16/15/1 9/16/1
f 21/17/7 19/4/7 20/18/7
f 10/19/8 20/8/8 9/8/8
f 12/10/2 21/20/2 10/20/2
f 11/21/1 20/16/1 19/21/1
f 3/1/1 4/22/1 2/2/1
f 6/2/2 8/22/2 7/1/2
f 11/4/3 19/4/3 22/5/3
f 12/5/3 14/13/3 13/6/3
f 17/7/4 10/19/4 9/8/4
f 18/12/2 14/13/2 12/10/2
f 12/10/2 10/20/2 17/11/2
f 14/13/5 18/12/5 15/14/5
f 16/9/6 15/14/6 18/12/6
f 9/16/1 11/21/1 13/6/1
f 13/6/1 15/14/1 16/15/1
f 21/17/7 22/5/7 19/4/7
f 10/19/8 21/19/8 20/8/8
f 12/10/2 22/10/2 21/20/2
f 11/21/1 9/16/1 20/16/1
