# Blender 4.1.1
# www.blender.org
mtllib small_test_no_smooth.mtl
o Cube
v -1.000000 0.000000 1.000000
v -1.000000 2.000000 1.000000
v -1.000000 0.000000 -1.000000
v -1.000000 2.000000 -1.000000
v 1.000000 0.000000 1.000000
v 1.000000 2.000000 1.000000
v 1.000000 0.000000 -1.000000
v 1.000000 2.000000 -1.000000
vn -0.5774 -0.5774 0.5774
vn -0.5774 0.5774 0.5774
vn -0.5774 -0.5774 -0.5774
vn -0.5774 0.5774 -0.5774
vn 0.5774 -0.5773 0.5773
vn 0.5773 0.5774 0.5774
vn 0.5773 -0.5774 -0.5774
vn 0.5774 0.5773 -0.5773
vt 0.625000 0.250000
vt 0.375000 0.000000
vt 0.625000 0.000000
vt 0.375000 0.500000
vt 0.125000 0.750000
vt 0.125000 0.500000
vt 0.875000 0.500000
vt 0.625000 0.750000
vt 0.625000 0.500000
vt 0.375000 0.250000
vt 0.375000 0.750000
vt 0.375000 1.000000
vt 0.875000 0.750000
vt 0.625000 1.000000
s 1
f 4/1/4 1/2/1 2/3/2
f 7/4/7 1/5/1 3/6/3
f 4/7/4 6/8/6 8/9/8
f 4/1/4 7/4/7 3/10/3
f 8/9/8 5/11/5 7/4/7
f 6/8/6 1/12/1 5/11/5
f 4/1/4 3/10/3 1/2/1
f 7/4/7 5/11/5 1/5/1
f 4/7/4 2/13/2 6/8/6
f 4/1/4 8/9/8 7/4/7
f 8/9/8 6/8/6 5/11/5
f 6/8/6 2/14/2 1/12/1
