# Blender 4.1.1
# www.blender.org
mtllib world.mtl
o World
v -50.000000 1.874588 50.000000
v 50.000000 1.874588 50.000000
v -50.000000 1.874588 -50.000000
v 50.000000 1.874588 -50.000000
v -50.000000 0.000000 50.000000
v 50.000000 0.000000 50.000000
v -50.000000 0.000000 -50.000000
v 50.000000 0.000000 -50.000000
vn -0.0000 -1.0000 -0.0000
vn -0.0000 1.0000 -0.0000
vt 0.000000 1.000000
vt 1.000000 0.000000
vt 0.000000 0.000000
vt 1.000000 1.000000
s 0
usemtl ReflectivePlane
f 3/1/1 2/2/1 1/3/1
f 6/2/2 7/1/2 5/3/2
f 3/1/1 4/4/1 2/2/1
f 6/2/2 8/4/2 7/1/2
